<?xml version="1.0" encoding="UTF-8" standalone="no"?>
<!DOCTYPE svg PUBLIC "-//W3C//DTD SVG 1.1//EN" "http://www.w3.org/Graphics/SVG/1.1/DTD/svg11.dtd">
<svg version="1.1" xmlns="http://www.w3.org/2000/svg" xmlns:xlink="http://www.w3.org/1999/xlink" preserveAspectRatio="xMidYMid meet" viewBox="0 0 640 640" width="640" height="640"><defs><path d="M634.94 127.45C634.94 184.43 588.1 230.69 530.41 230.69C472.72 230.69 425.88 184.43 425.88 127.45C425.88 70.47 472.72 24.21 530.41 24.21C588.1 24.21 634.94 70.47 634.94 127.45Z" id="f4j6fXtYXw"></path><path d="M115.83 441.96C115.83 472.84 91.02 497.92 60.45 497.92C29.88 497.92 5.06 472.84 5.06 441.96C5.06 411.07 29.88 386 60.45 386C91.02 386 115.83 411.07 115.83 441.96Z" id="cMtcW77c"></path><path d="M336.43 314.51C336.43 366.83 293.95 409.31 241.63 409.31C189.32 409.31 146.84 366.83 146.84 314.51C146.84 262.2 189.32 219.72 241.63 219.72C293.95 219.72 336.43 262.2 336.43 314.51Z" id="ayLW0Q9Z"></path><path d="M67.98 230.69L495.34 571.61L572.79 491.02C325.76 324.65 163.1 218.63 84.82 172.96C6.54 127.29 0.92 146.53 67.98 230.69Z" id="b22elJI5fT"></path><path d="M634.94 512.55C634.94 569.53 588.1 615.79 530.41 615.79C472.72 615.79 425.88 569.53 425.88 512.55C425.88 455.57 472.72 409.31 530.41 409.31C588.1 409.31 634.94 455.57 634.94 512.55Z" id="butbaqw8c"></path><path d="M120.86 191.16C120.86 222.79 94.91 248.46 62.96 248.46C31.01 248.46 5.06 222.79 5.06 191.16C5.06 159.53 31.01 133.85 62.96 133.85C94.91 133.85 120.86 159.53 120.86 191.16Z" id="ax1SdYPtj"></path><path d="M478.11 120.24L582.71 120.24L582.71 519.76L478.11 519.76L478.11 120.24Z" id="brIxp7NPw"></path><path d="M77.39 404.87L504.74 63.95L582.2 144.54C335.16 310.91 172.51 416.93 94.22 462.6C15.94 508.27 10.33 489.03 77.39 404.87Z" id="bnEqsWkAX"></path></defs><g><g><g><use xlink:href="#f4j6fXtYXw" opacity="1" fill="#e10098" fill-opacity="1"></use></g><g><use xlink:href="#cMtcW77c" opacity="1" fill="#e10098" fill-opacity="1"></use></g><g><use xlink:href="#ayLW0Q9Z" opacity="1" fill="#e10098" fill-opacity="1"></use></g><g><use xlink:href="#b22elJI5fT" opacity="1" fill="#e10098" fill-opacity="1"></use></g><g><use xlink:href="#butbaqw8c" opacity="1" fill="#e10098" fill-opacity="1"></use></g><g><use xlink:href="#ax1SdYPtj" opacity="1" fill="#e10098" fill-opacity="1"></use></g><g><use xlink:href="#brIxp7NPw" opacity="1" fill="#e10098" fill-opacity="1"></use></g><g><use xlink:href="#bnEqsWkAX" opacity="1" fill="#e10098" fill-opacity="1"></use></g></g></g></svg>