<svg xmlns="http://www.w3.org/2000/svg" xmlns:xlink="http://www.w3.org/1999/xlink" xml:space="preserve" version="1.1" style="shape-rendering:geometricPrecision;text-rendering:geometricPrecision;image-rendering:optimizeQuality;" viewBox="0 0 846.66 1058.325" x="0px" y="0px" fill-rule="evenodd" clip-rule="evenodd"><defs><style type="text/css">
   
    .fil0 {fill:black;fill-rule:nonzero}
   
  </style></defs><g><path class="fil0" d="M732.77 654.14l0 126.15 0 19.67 -19.67 0 -579.56 0 -19.67 0 0 -19.67 0 -126.15c0,-68.52 16.96,-125.4 45.21,-170.89 -32.76,-22.31 -135.29,-104.64 -69.97,-224.59 59.23,-108.73 131.05,-159.67 234.32,-211.95 -13.43,30 -26.81,60.01 -40.32,89.96 -57.67,127.76 -81.16,179.83 -34.5,203.92l53.13 27.42c76.44,-28.82 164.65,-28.32 241.28,0.97l55.01 -28.39c46.67,-24.09 23.17,-76.16 -34.49,-203.92 -13.52,-29.95 -26.9,-59.96 -40.33,-89.96 103.27,52.28 175.1,103.22 234.32,211.95 66.04,121.25 -39.46,204.06 -71.02,225.3 28.89,45.52 46.26,102.29 46.26,170.18zm-145.17 -264.03c28.27,16.25 53.96,37.02 75.61,62.32 22.52,-14.7 111.38,-80.52 59.9,-175.02 -34.08,-62.6 -78.77,-106.51 -113.53,-134.13 60.86,135.41 82.11,193.12 6.42,232.18l-28.4 14.65zm-405.57 61.4c21.41,-25.47 46.85,-46.3 74.93,-62.46l-26.32 -13.59c-75.69,-39.06 -54.45,-96.77 6.42,-232.18 -34.76,27.62 -79.44,71.53 -113.53,134.13 -50.46,92.64 33.93,157.71 58.5,174.1zm-28.8 201.66l540.18 0c-1.01,-352.53 -539.19,-360.58 -540.18,0zm540.2 39.32l-540.22 0 0 68.15 540.22 0 0 -68.15z"/></g><text x="0" y="861.66" fill="#000000" font-size="5px" font-weight="bold" font-family="'Helvetica Neue', Helvetica, Arial-Unicode, Arial, Sans-serif">Created by Zahroe</text><text x="0" y="866.66" fill="#000000" font-size="5px" font-weight="bold" font-family="'Helvetica Neue', Helvetica, Arial-Unicode, Arial, Sans-serif">from the Noun Project</text></svg>