<svg xmlns="http://www.w3.org/2000/svg" data-name="Layer 1" viewBox="0 0 100 125" x="0px" y="0px"><title>09</title><g data-name="Group"><path data-name="Compound Path" d="M83.9,4.9A3,3,0,0,0,80.1,3L63.7,8.7a3,3,0,0,0-1.9,3.8l.7,1.9-46.3,16a3,3,0,0,0-1.9,3.8l.3.9L8.1,37.5a3,3,0,0,0-1.9,3.8l4,11.6a3,3,0,0,0,2.8,2l1-.2,6.6-2.3.3.9a3,3,0,0,0,2.8,2l1-.2L48.5,47V66.6L30.9,93.9l5,3.2L48.5,77.7V97h6V77.7L67,97.1l5-3.2L54.5,66.6V44.9l16.6-5.7.7,1.9a3,3,0,0,0,2.8,2l1-.2,16.4-5.7a3,3,0,0,0,1.9-3.8ZM76.4,36.3,68.5,13.4,79.2,9.7l7.9,22.9Z"/></g><text x="0" y="115" fill="#000000" font-size="5px" font-weight="bold" font-family="'Helvetica Neue', Helvetica, Arial-Unicode, Arial, Sans-serif">Created by Jugalbandi</text><text x="0" y="120" fill="#000000" font-size="5px" font-weight="bold" font-family="'Helvetica Neue', Helvetica, Arial-Unicode, Arial, Sans-serif">from the Noun Project</text></svg>