<?xml version="1.0" encoding="UTF-8" standalone="no"?>
<!DOCTYPE svg PUBLIC "-//W3C//DTD SVG 1.1//EN" "http://www.w3.org/Graphics/SVG/1.1/DTD/svg11.dtd">
<svg version="1.1" xmlns="http://www.w3.org/2000/svg" xmlns:xlink="http://www.w3.org/1999/xlink" preserveAspectRatio="xMidYMid meet" viewBox="0 0 640 640" width="640" height="640"><defs><path d="M634.26 127.74C634.26 184.72 587.42 230.98 529.73 230.98C472.04 230.98 425.2 184.72 425.2 127.74C425.2 70.75 472.04 24.49 529.73 24.49C587.42 24.49 634.26 70.75 634.26 127.74Z" id="a7xWqkOJ9"></path><path d="M119.67 502.31C119.67 533.2 94.85 558.27 64.28 558.27C33.71 558.27 8.9 533.2 8.9 502.31C8.9 471.43 33.71 446.35 64.28 446.35C94.85 446.35 119.67 471.43 119.67 502.31Z" id="bSBarFNxG"></path><path d="M358.75 326.93C358.75 376.22 318.73 416.24 269.44 416.24C220.15 416.24 180.14 376.22 180.14 326.93C180.14 277.64 220.15 237.62 269.44 237.62C318.73 237.62 358.75 277.64 358.75 326.93Z" id="e1uzHdfXZD"></path><path d="M80.62 458.71L470.63 101.63L548.58 181.73C338.6 346.36 194.61 451.75 116.61 497.91C38.62 544.08 26.62 531.01 80.62 458.71Z" id="b4jcS1WwU"></path><path d="M95.67 229.92L492.47 579.45L568.88 497.86C355.77 337.3 209.78 234.69 130.91 190.04C52.04 145.38 40.3 158.67 95.67 229.92Z" id="d1dH2OPvbZ"></path><path d="M634.26 536.76C634.26 593.74 587.42 640 529.73 640C472.04 640 425.2 593.74 425.2 536.76C425.2 479.78 472.04 433.51 529.73 433.51C587.42 433.51 634.26 479.78 634.26 536.76Z" id="a93uOi8bG7"></path><path d="M124.69 173.67C124.69 205.3 98.75 230.98 66.79 230.98C34.84 230.98 8.9 205.3 8.9 173.67C8.9 142.05 34.84 116.37 66.79 116.37C98.75 116.37 124.69 142.05 124.69 173.67Z" id="cn7Ws0CKD"></path><path d="M476.92 137.24L581.52 137.24L581.52 536.76L476.92 536.76L476.92 137.24Z" id="a2D5Aue4EI"></path></defs><g><g><g><use xlink:href="#a7xWqkOJ9" opacity="1" fill="#e10098" fill-opacity="1"></use></g><g><use xlink:href="#bSBarFNxG" opacity="1" fill="#e10098" fill-opacity="1"></use></g><g><use xlink:href="#e1uzHdfXZD" opacity="1" fill="#e10098" fill-opacity="1"></use></g><g><use xlink:href="#b4jcS1WwU" opacity="1" fill="#e10098" fill-opacity="1"></use></g><g><use xlink:href="#d1dH2OPvbZ" opacity="1" fill="#e10098" fill-opacity="1"></use></g><g><use xlink:href="#a93uOi8bG7" opacity="1" fill="#e10098" fill-opacity="1"></use></g><g><use xlink:href="#cn7Ws0CKD" opacity="1" fill="#e10098" fill-opacity="1"></use></g><g><use xlink:href="#a2D5Aue4EI" opacity="1" fill="#e10098" fill-opacity="1"></use></g></g></g></svg>