<?xml version="1.0" encoding="UTF-8" standalone="no"?>
<!DOCTYPE svg PUBLIC "-//W3C//DTD SVG 1.1//EN" "http://www.w3.org/Graphics/SVG/1.1/DTD/svg11.dtd">
<svg version="1.1" xmlns="http://www.w3.org/2000/svg" xmlns:xlink="http://www.w3.org/1999/xlink" preserveAspectRatio="xMidYMid meet" viewBox="0 0 640 640" width="640" height="640"><defs><path d="M588.11 202.53C588.11 255.15 545.39 297.87 492.77 297.87C440.15 297.87 397.43 255.15 397.43 202.53C397.43 149.92 440.15 107.2 492.77 107.2C545.39 107.2 588.11 149.92 588.11 202.53Z" id="bamkX6uFE"></path><path d="M158.09 419.03C158.09 446.43 135.84 468.68 108.45 468.68C81.05 468.68 58.8 446.43 58.8 419.03C58.8 391.64 81.05 369.39 108.45 369.39C135.84 369.39 158.09 391.64 158.09 419.03Z" id="bcdtjwxAz"></path><path d="M358.75 326.93C358.75 376.22 318.73 416.24 269.44 416.24C220.15 416.24 180.14 376.22 180.14 326.93C180.14 277.64 220.15 237.62 269.44 237.62C318.73 237.62 358.75 277.64 358.75 326.93Z" id="egGlfAHQ8"></path><path d="M158.09 237.62C158.09 265.02 135.84 287.26 108.45 287.26C81.05 287.26 58.8 265.02 58.8 237.62C58.8 210.22 81.05 187.98 108.45 187.98C135.84 187.98 158.09 210.22 158.09 237.62Z" id="a2h7crbFog"></path><path d="M103.85 267.16L449.8 516.99L521.01 391.79L122.43 221.79L103.85 267.16Z" id="ducVFsYIp"></path><path d="M114.4 382.3L450.27 159.46L500.81 267.16L141.28 432.84L114.4 382.3Z" id="b6ywdPS3K"></path><path d="M588.11 458.86C588.11 511.48 545.39 554.19 492.77 554.19C440.15 554.19 397.43 511.48 397.43 458.86C397.43 406.24 440.15 363.52 492.77 363.52C545.39 363.52 588.11 406.24 588.11 458.86Z" id="biVXSDcgM"></path></defs><g><g><g><use xlink:href="#bamkX6uFE" opacity="1" fill="#e10098" fill-opacity="1"></use></g><g><use xlink:href="#bcdtjwxAz" opacity="1" fill="#e10098" fill-opacity="1"></use></g><g><use xlink:href="#egGlfAHQ8" opacity="1" fill="#e10098" fill-opacity="1"></use></g><g><use xlink:href="#a2h7crbFog" opacity="1" fill="#e10098" fill-opacity="1"></use></g><g><use xlink:href="#ducVFsYIp" opacity="1" fill="#e10098" fill-opacity="1"></use></g><g><use xlink:href="#b6ywdPS3K" opacity="1" fill="#e10098" fill-opacity="1"></use></g><g><use xlink:href="#biVXSDcgM" opacity="1" fill="#e10098" fill-opacity="1"></use></g></g></g></svg>